<svg id="Capa_1" enable-background="new 0 0 511.968 511.968" height="512" viewBox="0 0 511.968 511.968" width="512" xmlns="http://www.w3.org/2000/svg"><g><g><g><g><path d="m491.816 250.62c-26.868-26.868-70.587-26.869-97.457.001-10.209 10.21-16.796 22.978-19.181 36.859-4.444-1.144-9.1-1.753-13.896-1.753-14.384 0-27.514 5.476-37.413 14.452-8.864-61.301-52.513-111.788-114.767-131.034v-79.647h20.811c5.523 0 10-4.478 10-10v-43.609c0-5.522-4.477-10-10-10h-134.294c-5.522 0-10 4.478-10 10v43.608c0 5.522 4.478 10 10 10h20.811v79.648c-69.964 21.63-116.43 82.717-116.43 154.268 0 89.694 73.017 162.666 162.766 162.666 61.461 0 115.074-34.221 142.766-84.599v28.848c0 30.741 25.01 55.751 55.751 55.751 30.742 0 55.752-25.01 55.752-55.751v-67.172c8.23 3.355 17.085 5.105 26.064 5.105 1.643 0 3.292-.059 4.94-.177 16.512-1.184 32.059-8.289 43.777-20.007 26.869-26.869 26.869-70.588 0-97.457zm-130.534 55.107c19.714 0 35.752 16.038 35.752 35.751v34.425h-71.503v-34.425c0-19.713 16.038-35.751 35.751-35.751zm-255.663-259.838h114.293v23.608h-114.293zm57.147 420.19c-78.722 0-142.766-64-142.766-142.666 0-64.841 43.793-119.919 108.973-137.056 4.393-1.155 7.457-5.127 7.457-9.671v-87.188h52.672v87.188c0 4.544 3.063 8.516 7.457 9.671 65.18 17.137 108.973 72.215 108.973 137.056-.001 78.666-64.045 142.666-142.766 142.666zm234.268-35.751c0 19.713-16.038 35.751-35.752 35.751-19.713 0-35.751-16.038-35.751-35.751v-34.425h71.503zm80.64-96.394c-16.116 16.118-41.614 18.795-60.644 6.819-.232-18.12-9.152-34.183-22.777-44.207.664-12.01 5.644-23.179 14.249-31.784 19.07-19.072 50.101-19.072 69.172 0 9.238 9.238 14.326 21.521 14.326 34.586s-5.088 25.348-14.326 34.586z"/><path d="m447.746 280.549-23.459 23.458c-3.905 3.905-3.905 10.237 0 14.142 1.953 1.952 4.512 2.929 7.071 2.929s5.118-.977 7.071-2.929l23.459-23.458c3.905-3.905 3.905-10.237 0-14.142-3.905-3.904-10.235-3.905-14.142 0z"/><path d="m275.514 285.789c-1.359-4.087-5.183-6.845-9.489-6.845h-58.052c-5.523 0-10 4.477-10 10 0 5.522 4.477 10 10 10h50.559c1.992 7.901 2.999 16.102 2.999 24.469 0 54.404-44.306 98.666-98.766 98.666s-98.766-44.262-98.766-98.666c0-8.366 1.007-16.567 2.999-24.469h50.431c5.522 0 10-4.478 10-10 0-5.523-4.478-10-10-10h-57.922c-4.307 0-8.13 2.758-9.489 6.845-3.994 12.007-6.018 24.665-6.018 37.624 0 65.433 53.278 118.666 118.766 118.666s118.766-53.233 118.766-118.666c-.001-12.959-2.025-25.617-6.018-37.624z"/><path d="m153.72 292.763c1.578 3.852 5.544 6.369 9.703 6.168 4.185-.203 7.867-3.083 9.087-7.087 1.224-4.018-.278-8.525-3.687-10.989-3.34-2.415-7.909-2.519-11.357-.266-3.965 2.591-5.568 7.805-3.746 12.174z"/><path d="m205.102 374.737c15.07 0 27.331-12.261 27.331-27.331s-12.261-27.33-27.331-27.33-27.331 12.26-27.331 27.33c-.001 15.07 12.26 27.331 27.331 27.331zm0-34.661c4.042 0 7.331 3.288 7.331 7.33s-3.289 7.331-7.331 7.331-7.331-3.289-7.331-7.331 3.289-7.33 7.331-7.33z"/></g></g></g></g></svg>