<?xml version="1.0"?>
<svg xmlns="http://www.w3.org/2000/svg" viewBox="0 0 64 64" width="512" height="512"><g id="Tools_box" data-name="Tools box"><path d="M60,32.184V9a3,3,0,0,0-3-3H42V5a3,3,0,0,0-3-3H25a3,3,0,0,0-3,3V6H7A3,3,0,0,0,4,9V32.184A3,3,0,0,0,2,35V59a3,3,0,0,0,3,3H59a3,3,0,0,0,3-3V35A3,3,0,0,0,60,32.184ZM24,5a1,1,0,0,1,1-1H39a1,1,0,0,1,1,1V6H24ZM6,9A1,1,0,0,1,7,8H57a1,1,0,0,1,1,1V32H56V11a1,1,0,0,0-1-1H9a1,1,0,0,0-1,1V32H6ZM44,32V24h1a1,1,0,0,0,1-1V22h1a2,2,0,0,0,2,2h2a1,1,0,0,0,1-1V15a1,1,0,0,0-1-1H49a2,2,0,0,0-2,2H46a2,2,0,0,0-2-2H39a9.01,9.01,0,0,0-9,9v2a1,1,0,0,0,.669.944A1.027,1.027,0,0,0,31,26a1,1,0,0,0,.781-.375l2.8-3.5A2.948,2.948,0,0,1,36,21.15V23a1,1,0,0,0,1,1h1v8H24V28.472a1.012,1.012,0,0,1,.463-.835,7.994,7.994,0,0,0-1.036-13.861,1,1,0,0,0-1.427.9v5.785L20,21.8l-2-1.333V14.68a1,1,0,0,0-1.427-.9,7.993,7.993,0,0,0-1.036,13.86,1.015,1.015,0,0,1,.463.836V32H10V12H54V32Zm1-14h3a1,1,0,0,0,1-1V16h1v6H49V21a1,1,0,0,0-1-1H45a1,1,0,0,0-1,1v1H38V20a1.068,1.068,0,0,0-1.077-1,4.975,4.975,0,0,0-3.905,1.877l-.956,1.2A7.009,7.009,0,0,1,39,16h5v1A1,1,0,0,0,45,18Zm-5,6h2v8H40ZM16.65,25.975A6,6,0,0,1,16,16.522V21a1,1,0,0,0,.445.832l3,2a1,1,0,0,0,1.11,0l3-2A1,1,0,0,0,24,21V16.522a6,6,0,0,1-.65,9.454,3.008,3.008,0,0,0-1.35,2.5V32H18V28.472A3.011,3.011,0,0,0,16.65,25.975ZM60,59a1,1,0,0,1-1,1H5a1,1,0,0,1-1-1V35a1,1,0,0,1,1-1H59a1,1,0,0,1,1,1Z"/><path d="M41,36H23a3,3,0,0,0,0,6H41a3,3,0,0,0,0-6Zm0,4H23a1,1,0,0,1,0-2H41a1,1,0,0,1,0,2Z"/></g></svg>
